# File created by Blade
# Date/Time:  Thu Jan 22 16:36:26 2015
# Frame Rate: 120.000 fps
#------------------------------------------------------
:FULLY-SPECIFIED
:DEGREES
3717
root 3.179973 16.224239 44.299457 16.186672 12.294308 0.066145
RightUpLeg -104.383662 -16.388775 0.547486
RightLeg 121.285391 -0.000000 -0.000000
RightFoot -34.990678 4.177976 17.991794
RightToeBase -346.823482 -0.000000 -0.000000
LeftUpLeg 19.522080 -13.108387 9.797114
LeftLeg 137.493166 -0.000000 -0.000000
LeftFoot 26.159298 17.850835 -33.702466
LeftToeBase 14.866397 -0.000000 -0.000000
Spine 9.706707 11.957714 13.162773
RightShoulder -7.749029 -21.221149 -15.270356
RightArm 11.080409 -12.102003 58.826698
RightForeArm -22.006099 -0.000000 109.117383
RightHand 12.270893 -0.000000 -17.351796
RightHandThumb1 -24.326973 -0.000000 -32.862282
LeftShoulder -39.277908 34.293407 -13.746390
LeftArm 25.587319 -8.357691 -85.946920
LeftForeArm 58.909347 -0.000000 9.876425
LeftHand -20.445897 0.000000 -21.435065
LeftHandThumb1 -26.253704 0.000000 33.147579
Head -13.010430 -15.621432 -4.464943
3718
root 3.178050 16.226318 44.296269 16.209747 12.286507 0.056883
RightUpLeg -104.401558 -16.406805 0.544524
RightLeg 121.293847 -0.000000 -0.000000
RightFoot -34.946851 4.369341 18.059039
RightToeBase -346.770735 -0.000000 -0.000000
LeftUpLeg 19.492378 -13.155833 9.797201
LeftLeg 137.553865 -0.000000 -0.000000
LeftFoot 26.136722 17.851959 -33.722831
LeftToeBase 14.921853 -0.000000 -0.000000
Spine 9.732716 11.956925 13.172829
RightShoulder -7.770108 -21.214010 -15.279058
RightArm 11.053117 -12.083180 58.868280
RightForeArm -22.059516 -0.000000 109.147939
RightHand 12.287447 -0.000000 -17.352350
RightHandThumb1 -24.326973 -0.000000 -32.862282
LeftShoulder -39.255193 34.327714 -13.701723
LeftArm 25.657111 -8.271378 -85.987891
LeftForeArm 58.845243 0.000000 9.828037
LeftHand -20.434185 -0.000000 -21.465529
LeftHandThumb1 -26.253704 0.000000 33.147579
Head -13.126242 -15.653752 -4.400412
3719
root 3.176341 16.228086 44.293876 16.226485 12.267693 0.050038
RightUpLeg -104.437099 -16.399029 0.609034
RightLeg 121.263518 -0.000000 -0.000000
RightFoot -34.955521 4.294722 17.993995
RightToeBase -346.743226 -0.000000 -0.000000
LeftUpLeg 19.475296 -13.181686 9.791294
LeftLeg 137.601291 -0.000000 -0.000000
LeftFoot 26.120759 17.884319 -33.747242
LeftToeBase 14.965993 -0.000000 -0.000000
Spine 9.762537 11.908608 13.174214
RightShoulder -7.723194 -21.211815 -15.321454
RightArm 11.034045 -12.073463 58.906607
RightForeArm -22.025525 -0.000000 109.177332
RightHand 12.310798 -0.000000 -17.392366
RightHandThumb1 -24.326973 -0.000000 -32.862282
LeftShoulder -39.284429 34.357978 -13.696936
LeftArm 25.722559 -8.188796 -86.028766
LeftForeArm 58.749859 -0.000000 9.775592
LeftHand -20.481649 -0.000000 -21.404547
LeftHandThumb1 -26.253704 0.000000 33.147579
Head -13.226772 -15.606041 -4.356679
3720
root 3.177052 16.229831 44.292328 16.247897 12.234725 0.059263
RightUpLeg -104.458123 -16.413543 0.609214
RightLeg 121.263307 -0.000000 -0.000000
RightFoot -34.938058 4.422263 18.006318
RightToeBase -346.685595 -0.000000 -0.000000
LeftUpLeg 19.459512 -13.177520 9.768268
LeftLeg 137.639091 -0.000000 -0.000000
LeftFoot 26.138261 17.877722 -33.708117
LeftToeBase 14.924003 -0.000000 -0.000000
Spine 9.793021 11.893852 13.147584
RightShoulder -7.719740 -21.210241 -15.330086
RightArm 11.016423 -12.068445 58.927605
RightForeArm -22.052881 -0.000000 109.203981
RightHand 12.294619 0.000000 -17.418408
RightHandThumb1 -24.326973 -0.000000 -32.862282
LeftShoulder -39.284837 34.375241 -13.663306
LeftArm 25.749865 -8.128476 -86.071423
LeftForeArm 58.675995 -0.000000 9.768045
LeftHand -20.514840 -0.000000 -21.351353
LeftHandThumb1 -26.253704 0.000000 33.147579
Head -13.311263 -15.611429 -4.317638
3721
root 3.176620 16.230841 44.291500 16.260085 12.195013 0.050989
RightUpLeg -104.485821 -16.393181 0.654000
RightLeg 121.237127 -0.000000 -0.000000
RightFoot -34.950988 4.390074 18.002052
RightToeBase -346.627523 -0.000000 -0.000000
LeftUpLeg 19.455448 -13.160642 9.760489
LeftLeg 137.671736 -0.000000 -0.000000
LeftFoot 26.174341 17.881789 -33.655401
LeftToeBase 14.923920 -0.000000 -0.000000
Spine 9.829475 11.887568 13.152807
RightShoulder -7.706713 -21.219901 -15.358934
RightArm 10.989104 -12.050298 58.956880
RightForeArm -22.103438 0.000000 109.244490
RightHand 12.300407 -0.000000 -17.393917
RightHandThumb1 -24.326973 -0.000000 -32.862282
LeftShoulder -39.262752 34.390016 -13.621809
LeftArm 25.757642 -8.062890 -86.110811
LeftForeArm 58.584334 -0.000000 9.744164
LeftHand -20.509745 -0.000000 -21.307633
LeftHandThumb1 -26.253704 0.000000 33.147579
Head -13.407593 -15.557980 -4.288977
3722
root 3.175784 16.229265 44.292986 16.253292 12.154394 0.023023
RightUpLeg -104.494395 -16.369129 0.705991
RightLeg 121.229596 -0.000000 -0.000000
RightFoot -34.963460 4.347249 17.963959
RightToeBase -346.618451 -0.000000 -0.000000
LeftUpLeg 19.487444 -13.133594 9.767142
LeftLeg 137.705639 -0.000000 -0.000000
LeftFoot 26.158524 17.869805 -33.634314
LeftToeBase 14.902872 -0.000000 -0.000000
Spine 9.879262 11.863919 13.177345
RightShoulder -7.689626 -21.240835 -15.400499
RightArm 10.990689 -12.046243 58.971162
RightForeArm -22.041264 -0.000000 109.270191
RightHand 12.357304 -0.000000 -17.418845
RightHandThumb1 -24.326973 -0.000000 -32.862282
LeftShoulder -39.292009 34.411798 -13.610535
LeftArm 25.773762 -8.005210 -86.164108
LeftForeArm 58.538768 -0.000000 9.745087
LeftHand -20.513360 -0.000000 -21.346408
LeftHandThumb1 -26.253704 0.000000 33.147579
Head -13.492865 -15.509014 -4.269909
3723
root 3.175386 16.230267 44.293621 16.266829 12.104725 0.008843
RightUpLeg -104.521623 -16.347709 0.736691
RightLeg 121.227786 -0.000000 -0.000000
RightFoot -34.938810 4.364141 17.999456
RightToeBase -346.309916 -0.000000 -0.000000
LeftUpLeg 19.488215 -13.094056 9.763192
LeftLeg 137.732809 -0.000000 -0.000000
LeftFoot 26.201258 17.882034 -33.604419
LeftToeBase 14.910898 -0.000000 -0.000000
Spine 9.921801 11.844329 13.167582
RightShoulder -7.685761 -21.245275 -15.387162
RightArm 10.986200 -12.023869 58.937725
RightForeArm -22.099115 -0.000000 109.321992
RightHand 12.325333 -0.000000 -17.368991
RightHandThumb1 -24.326973 -0.000000 -32.862282
LeftShoulder -39.312843 34.395620 -13.589443
LeftArm 25.749011 -7.950136 -86.195376
LeftForeArm 58.491403 -0.000000 9.766127
LeftHand -20.548764 -0.000000 -21.405335
LeftHandThumb1 -26.253704 0.000000 33.147579
Head -13.602346 -15.468466 -4.218023
3724
root 3.175678 16.229882 44.294347 16.291268 12.060030 -0.007664
RightUpLeg -104.562895 -16.326266 0.778339
RightLeg 121.219543 -0.000000 -0.000000
RightFoot -34.905624 4.402365 17.927816
RightToeBase -346.643365 -0.000000 -0.000000
LeftUpLeg 19.480222 -13.049520 9.764747
LeftLeg 137.769247 -0.000000 -0.000000
LeftFoot 26.220519 17.873248 -33.581073
LeftToeBase 14.946393 -0.000000 -0.000000
Spine 9.926448 11.828870 13.158266
RightShoulder -7.671568 -21.255999 -15.378661
RightArm 10.989841 -12.043079 58.886332
RightForeArm -22.029157 0.000000 109.337070
RightHand 12.391956 -0.000000 -17.463686
RightHandThumb1 -24.326973 -0.000000 -32.862282
LeftShoulder -39.349619 34.464318 -13.588915
LeftArm 25.805172 -7.905365 -86.272859
LeftForeArm 58.458572 -0.000000 9.729527
LeftHand -20.592022 -0.000000 -21.365361
LeftHandThumb1 -26.253704 0.000000 33.147579
Head -13.675466 -15.493068 -4.160628
3725
root 3.175979 16.228005 44.295965 16.304247 12.012336 -0.022398
RightUpLeg -104.594055 -16.302781 0.815424
RightLeg 121.218889 -0.000000 -0.000000
RightFoot -34.896111 4.378558 17.924943
RightToeBase -346.395353 -0.000000 -0.000000
LeftUpLeg 19.490702 -13.017550 9.760258
LeftLeg 137.803760 -0.000000 -0.000000
LeftFoot 26.207453 17.863576 -33.665722
LeftToeBase 15.039137 -0.000000 -0.000000
Spine 9.947618 11.805476 13.152464
RightShoulder -7.656673 -21.281278 -15.391479
RightArm 11.011151 -12.046861 58.858299
RightForeArm -22.015629 -0.000000 109.356118
RightHand 12.430526 -0.000000 -17.462448
RightHandThumb1 -24.326973 -0.000000 -32.862282
LeftShoulder -39.362462 34.508782 -13.571890
LeftArm 25.812127 -7.896371 -86.354998
LeftForeArm 58.430790 0.000000 9.724678
LeftHand -20.630587 0.000000 -21.361800
LeftHandThumb1 -26.253704 0.000000 33.147579
Head -13.757488 -15.444690 -4.115835
3726
root 3.176225 16.226235 44.298309 16.318930 11.970233 -0.036965
RightUpLeg -104.629395 -16.288191 0.874688
RightLeg 121.214124 -0.000000 -0.000000
RightFoot -34.872108 4.287029 17.837514
RightToeBase -346.447213 -0.000000 -0.000000
LeftUpLeg 19.497853 -12.971556 9.757988
LeftLeg 137.827713 -0.000000 -0.000000
LeftFoot 26.233446 17.858298 -33.673216
LeftToeBase 15.022980 -0.000000 -0.000000
Spine 9.960423 11.775167 13.143290
RightShoulder -7.635481 -21.305734 -15.391036
RightArm 11.027656 -12.030455 58.821693
RightForeArm -21.992424 -0.000000 109.384287
RightHand 12.434011 -0.000000 -17.413101
RightHandThumb1 -24.326973 -0.000000 -32.862282
LeftShoulder -39.383978 34.556071 -13.557382
LeftArm 25.821697 -7.893655 -86.442171
LeftForeArm 58.382219 -0.000000 9.706990
LeftHand -20.670393 -0.000000 -21.324737
LeftHandThumb1 -26.253704 0.000000 33.147579
Head -13.827626 -15.427806 -4.076459
3727
root 3.176457 16.224527 44.300976 16.338399 11.937305 -0.043129
RightUpLeg -104.661120 -16.282858 0.895192
RightLeg 121.230019 -0.000000 -0.000000
RightFoot -34.850388 4.351807 17.747489
RightToeBase -346.756226 -0.000000 -0.000000
LeftUpLeg 19.499823 -12.935321 9.755049
LeftLeg 137.848871 -0.000000 -0.000000
LeftFoot 26.265127 17.853604 -33.697101
LeftToeBase 14.956086 -0.000000 -0.000000
Spine 9.967295 11.736653 13.133127
RightShoulder -7.624559 -21.305847 -15.402604
RightArm 11.035903 -12.046716 58.796860
RightForeArm -22.000128 -0.000000 109.388014
RightHand 12.483847 0.000000 -17.440891
RightHandThumb1 -24.326973 -0.000000 -32.862282
LeftShoulder -39.372362 34.570539 -13.516850
LeftArm 25.780677 -7.869541 -86.496044
LeftForeArm 58.276840 -0.000000 9.697813
LeftHand -20.745078 -0.000000 -21.290276
LeftHandThumb1 -26.253704 0.000000 33.147579
Head -13.937188 -15.550537 -3.958307
3728
root 3.175713 16.222192 44.303348 16.365056 11.904217 -0.045692
RightUpLeg -104.704945 -16.269380 0.927953
RightLeg 121.226111 -0.000000 -0.000000
RightFoot -34.838010 4.290680 17.695857
RightToeBase -346.791323 -0.000000 -0.000000
LeftUpLeg 19.492841 -12.898442 9.751821
LeftLeg 137.875630 -0.000000 -0.000000
LeftFoot 26.281459 17.841940 -33.712124
LeftToeBase 15.002889 -0.000000 -0.000000
Spine 9.967049 11.693424 13.102364
RightShoulder -7.618052 -21.309639 -15.395885
RightArm 11.074982 -12.061082 58.760425
RightForeArm -21.962155 -0.000000 109.391940
RightHand 12.519585 -0.000000 -17.469791
RightHandThumb1 -24.326973 -0.000000 -32.862282
LeftShoulder -39.389787 34.594456 -13.480622
LeftArm 25.761685 -7.846835 -86.560040
LeftForeArm 58.213016 -0.000000 9.675222
LeftHand -20.739977 -0.000000 -21.281234
LeftHandThumb1 -26.253704 0.000000 33.147579
Head -14.023428 -15.558230 -3.898890
3729
root 3.174952 16.219248 44.308394 16.377532 11.874123 -0.051110
RightUpLeg -104.747793 -16.254590 0.969681
RightLeg 121.249156 -0.000000 -0.000000
RightFoot -34.809992 4.244326 17.650895
RightToeBase -346.821077 -0.000000 -0.000000
LeftUpLeg 19.504111 -12.852338 9.757883
LeftLeg 137.889996 -0.000000 -0.000000
LeftFoot 26.320125 17.842821 -33.671856
LeftToeBase 14.922751 -0.000000 -0.000000
Spine 9.974534 11.660567 13.075596
RightShoulder -7.625162 -21.307827 -15.381574
RightArm 11.098471 -12.075491 58.723264
RightForeArm -21.919564 -0.000000 109.390453
RightHand 12.558287 -0.000000 -17.517658
RightHandThumb1 -24.326973 -0.000000 -32.862282
LeftShoulder -39.399607 34.642123 -13.450037
LeftArm 25.768621 -7.828499 -86.630443
LeftForeArm 58.142112 -0.000000 9.641592
LeftHand -20.777764 -0.000000 -21.258093
LeftHandThumb1 -26.253704 0.000000 33.147579
Head -14.090188 -15.516641 -3.866062
